<svg width="69" height="69" fill="none" xmlns="http://www.w3.org/2000/svg"><path d="M31.266 49.594h10.78v14.015h-10.78V49.594z" fill="url(#paint0_linear)"/><path d="M5.39 24.797h40.97v10.781H5.39V24.797z" fill="url(#paint1_linear)"/><path d="M54.984 18.328a4.317 4.317 0 01-4.312-4.312 4.317 4.317 0 014.312-4.313 4.317 4.317 0 014.313 4.313 4.317 4.317 0 01-4.313 4.312z" fill="url(#paint2_linear)"/><path d="M18.328 48.516c.595 0 1.078.483 1.078 1.078h2.157a3.238 3.238 0 00-3.235-3.235v-2.156h-2.156v2.156h-3.235v3.235a3.238 3.238 0 003.235 3.234h2.156c.595 0 1.078.483 1.078 1.078v1.078h-3.234a1.079 1.079 0 01-1.078-1.078h-2.156a3.238 3.238 0 003.234 3.235v2.156h2.156V57.14h3.235v-3.235a3.238 3.238 0 00-3.235-3.234h-2.156a1.079 1.079 0 01-1.078-1.078v-1.078h3.234z" fill="#282827"/><path d="M17.25 39.89c-6.539 0-11.86 5.321-11.86 11.86s5.321 11.86 11.86 11.86 11.86-5.321 11.86-11.86-5.321-11.86-11.86-11.86zm0 21.563c-5.35 0-9.703-4.352-9.703-9.703 0-5.35 4.352-9.703 9.703-9.703 5.35 0 9.703 4.352 9.703 9.703 0 5.35-4.352 9.703-9.703 9.703z" fill="#282827"/><path d="M59.297 45.281V32.344h2.156v-6.908c3.95-2.302 6.469-6.711 6.469-11.42 0-7.134-5.804-12.938-12.938-12.938-4.776 0-8.946 2.608-11.187 6.469h-29.15L1.078 21.117v46.805h54.985v-8.334l8.345-14.307h-5.111zm1.357 2.157l-5.67 9.72-5.67-9.72h3.514V32.343h4.313v15.093h3.513zm-1.357-17.25h-8.625v-4.313h8.625v4.313zM54.984 3.233c5.945 0 10.782 4.837 10.782 10.782 0 4.059-2.23 7.834-5.689 9.703h-4.014v-5.544c-.348.09-.705.153-1.079.153s-.73-.062-1.078-.153v5.544h-4.015c-3.458-1.869-5.688-5.644-5.688-9.703 0-5.945 4.837-10.782 10.781-10.782zm-40.968 7.994v9.256H4.759l9.257-9.256zM3.234 65.766V22.64h12.938V9.703h26.63a12.852 12.852 0 00-.755 4.313c0 4.709 2.518 9.118 6.469 11.42v6.908h2.156V45.28H45.56l8.345 14.307v6.178H3.234z" fill="#282827"/><path d="M39.89 61.453h2.157v2.156H39.89v-2.156zm-8.624 0h2.156v2.156h-2.156v-2.156zm4.312 0h2.156v2.156h-2.156v-2.156zm-4.312-4.313h10.78v2.157h-10.78V57.14zm0-4.312h10.78v2.156h-10.78v-2.156zm0-4.312h10.78v2.156h-10.78v-2.156zM39.89 11.86H18.329v10.78h21.563V11.86zm-2.156 8.624h-17.25v-6.468h17.25v6.468zM5.39 24.797h2.157v2.156H5.39v-2.156zm4.313 0H46.36v2.156H9.703v-2.156zM5.39 29.11h40.97v2.156H5.39v-2.157zm0 4.312h28.032v2.156H5.39v-2.156zm30.188 0h2.156v2.156h-2.156v-2.156zm8.625 0h2.156v2.156h-2.156v-2.156zm-4.313 0h2.157v2.156H39.89v-2.156z" fill="#282827"/><defs><linearGradient id="paint0_linear" x1="31.483" y1="50.55" x2="42.896" y2="54.625" gradientUnits="userSpaceOnUse"><stop stop-color="#1A3F79"/><stop offset=".057" stop-color="#2AA270"/><stop offset=".172" stop-color="#2AA270"/><stop offset=".229" stop-color="#2AA270"/><stop offset=".286" stop-color="#2AA270"/><stop offset=".349" stop-color="#2AA270"/><stop offset=".401" stop-color="#2AA270"/><stop offset=".458" stop-color="#2AA270"/><stop offset=".542" stop-color="#2AA270"/><stop offset=".599" stop-color="#2AA270"/></linearGradient><linearGradient id="paint1_linear" x1="6.216" y1="25.532" x2="18.109" y2="46.511" gradientUnits="userSpaceOnUse"><stop stop-color="#1A3F79"/><stop offset=".057" stop-color="#2AA270"/><stop offset=".172" stop-color="#2AA270"/><stop offset=".229" stop-color="#2AA270"/><stop offset=".286" stop-color="#2AA270"/><stop offset=".349" stop-color="#2AA270"/><stop offset=".401" stop-color="#2AA270"/><stop offset=".458" stop-color="#2AA270"/><stop offset=".542" stop-color="#2AA270"/><stop offset=".599" stop-color="#2AA270"/></linearGradient><linearGradient id="paint2_linear" x1="50.846" y1="10.291" x2="59.315" y2="14.223" gradientUnits="userSpaceOnUse"><stop stop-color="#1A3F79"/><stop offset=".057" stop-color="#2AA270"/><stop offset=".172" stop-color="#2AA270"/><stop offset=".229" stop-color="#2AA270"/><stop offset=".286" stop-color="#2AA270"/><stop offset=".349" stop-color="#2AA270"/><stop offset=".401" stop-color="#2AA270"/><stop offset=".458" stop-color="#2AA270"/><stop offset=".542" stop-color="#2AA270"/><stop offset=".599" stop-color="#2AA270"/></linearGradient></defs></svg>