<svg width="63" height="67" fill="none" xmlns="http://www.w3.org/2000/svg"><path d="M0 61.5l10.56 4.671-1.235-11.48L0 61.5zm13.309-.521c2.837-.38 5.796-.829 8.79-1.382l-.362-1.967c-2.955.546-5.88.99-8.693 1.367l.265 1.982zm17.502-3.307c2.908-.764 5.778-1.66 8.532-2.717l-.718-1.867c-2.673 1.027-5.471 1.9-8.322 2.65l.508 1.934zm16.663-6.585c2.673-1.578 5.115-3.4 7.213-5.511l-1.42-1.41c-1.956 1.97-4.256 3.691-6.81 5.198l1.017 1.723zm12.47-13a24.896 24.896 0 001.526-4.343l-1.94-.488a22.91 22.91 0 01-1.403 3.995l1.817.836zm1.526-4.343c.338-1.344.596-2.641.78-3.893l-1.979-.291a37.695 37.695 0 01-.74 3.696l1.939.488zm.936-11.856c-.356-2.887-1.18-5.442-2.347-7.69l-1.775.92c1.057 2.037 1.81 4.362 2.137 7.015l1.985-.245zM55.124 7.85c-2.024-1.836-4.3-3.298-6.628-4.444L47.612 5.2c2.19 1.078 4.305 2.44 6.169 4.132l1.343-1.482zM41.028.725a35.484 35.484 0 00-3.904-.717l-.248 1.984c1.145.143 2.387.365 3.683.677l.469-1.944z" fill="#fff"/></svg>