<svg width="66" height="65" fill="none" xmlns="http://www.w3.org/2000/svg"><path d="M33 49.274c9.407 0 17.032-7.51 17.032-16.774 0-9.264-7.625-16.774-17.032-16.774S15.968 23.236 15.968 32.5c0 9.264 7.625 16.774 17.032 16.774z" fill="url(#paint0_linear)"/><path d="M33 9.435C20.086 9.435 9.58 19.782 9.58 32.5c0 12.718 10.506 23.065 23.42 23.065 12.914 0 23.42-10.347 23.42-23.065C56.42 19.782 45.913 9.435 33 9.435zm0 44.033c-11.74 0-21.29-9.406-21.29-20.968S21.26 11.532 33 11.532c11.74 0 21.29 9.406 21.29 20.968S44.74 53.468 33 53.468z" fill="#282827"/><path d="M31.936 31.452h-13.84v2.096h15.969V17.823h-2.13v13.629zM33 15.726c.588 0 1.065-.47 1.065-1.049S33.588 13.63 33 13.63s-1.064.47-1.064 1.048c0 .58.476 1.049 1.064 1.049zm0 35.645c.588 0 1.065-.47 1.065-1.048 0-.58-.477-1.049-1.065-1.049s-1.064.47-1.064 1.049.476 1.048 1.064 1.048zm18.097-17.823c.588 0 1.064-.469 1.064-1.048 0-.579-.476-1.048-1.064-1.048-.588 0-1.065.469-1.065 1.048 0 .579.477 1.048 1.065 1.048zm-36.194 0c.588 0 1.065-.469 1.065-1.048 0-.579-.477-1.048-1.065-1.048s-1.064.469-1.064 1.048c0 .579.476 1.048 1.064 1.048z" fill="#282827"/><path d="M7.527 44.692l-1.23 3.03A29.864 29.864 0 012.129 32.5C2.129 15.736 15.979 2.097 33 2.097c7.04 0 13.93 2.4 19.4 6.76l1.34-1.63C47.89 2.567 40.525 0 33 0 14.803 0 0 14.579 0 32.5a31.924 31.924 0 004.527 16.387l-3.254-.64-.417 2.055 6.19 1.219 2.46-6.051-1.979-.778zm2.053 9.824c.588 0 1.065-.47 1.065-1.048 0-.58-.476-1.049-1.064-1.049-.588 0-1.065.47-1.065 1.049s.477 1.048 1.065 1.048zm51.893-38.403l3.254.64.418-2.056-6.19-1.219-2.459 6.051 1.977.778 1.23-3.03A29.87 29.87 0 0163.871 32.5c0 16.764-13.85 30.403-30.871 30.403-7.04 0-13.93-2.4-19.4-6.76l-1.34 1.63C18.11 62.433 25.475 65 33 65c18.197 0 33-14.579 33-32.5a31.924 31.924 0 00-4.527-16.387zM56.42 12.58c.587 0 1.064-.469 1.064-1.048 0-.579-.477-1.048-1.065-1.048-.587 0-1.064.47-1.064 1.048 0 .58.477 1.049 1.064 1.049z" fill="#282827"/><defs><linearGradient id="paint0_linear" x1="16.654" y1="18.014" x2="49.921" y2="33.694" gradientUnits="userSpaceOnUse"><stop stop-color="#1A3F79"/><stop offset=".057" stop-color="#2AA270"/><stop offset=".172" stop-color="#2AA270"/><stop offset=".229" stop-color="#2AA270"/><stop offset=".286" stop-color="#2AA270"/><stop offset=".349" stop-color="#2AA270"/><stop offset=".401" stop-color="#2AA270"/><stop offset=".458" stop-color="#2AA270"/><stop offset=".542" stop-color="#2AA270"/><stop offset=".599" stop-color="#2AA270"/></linearGradient></defs></svg>