<svg width="65" height="67" fill="none" xmlns="http://www.w3.org/2000/svg"><path d="M29.305 0v46.05h35.584V0H29.305zm33.49 43.957H31.399V2.093h31.398v41.864z" fill="#282827"/><path d="M60.702 4.186H33.491v8.373h27.211V4.186zm-2.093 6.28H35.584V6.28H58.61v4.186zM46.05 14.652H33.491v12.56h12.56v-12.56zm-2.093 10.466h-8.373v-8.372h8.373v8.372zm4.186 2.094h12.56v-12.56h-12.56v12.56zm2.093-10.466h8.373v8.372h-8.373v-8.372zM46.05 29.305H33.491v12.559h12.56v-12.56zM43.957 39.77h-8.373v-8.373h8.373v8.373zm4.186 2.094h12.56v-12.56h-12.56v12.56zm2.093-10.466h8.373v8.373h-8.373v-8.373z" fill="#282827"/><path d="M38.724 24.072h2.093v-2.093h2.093v-2.094h-2.093v-2.093h-2.093v2.093H36.63v2.093h2.093v2.094zm18.839-4.187h-6.28v2.093h6.28v-2.093zM38.417 38.417l1.354-1.353 1.353 1.353 1.48-1.48-1.353-1.353 1.353-1.353-1.48-1.48-1.353 1.353-1.354-1.353-1.48 1.48 1.354 1.353-1.353 1.353 1.48 1.48zm12.866-3.879v2.093h6.28v-2.093h-6.28z" fill="#282827"/><path d="M54.423 34.538a1.047 1.047 0 100-2.093 1.047 1.047 0 000 2.093zm0 4.186a1.047 1.047 0 100-2.093 1.047 1.047 0 000 2.093zM10.466 12.56H8.373a1.047 1.047 0 01-1.047-1.047H5.233a3.144 3.144 0 003.14 3.14v1.046h2.093v-1.047a3.144 3.144 0 003.14-3.14 3.144 3.144 0 00-3.14-3.14H8.373a1.047 1.047 0 010-2.092h2.093c.578 0 1.046.468 1.046 1.046h2.094a3.144 3.144 0 00-3.14-3.14V3.14H8.373v1.046a3.144 3.144 0 00-3.14 3.14 3.144 3.144 0 003.14 3.14h2.093a1.047 1.047 0 010 2.093z" fill="#282827"/><path d="M18.839 17.792a9.37 9.37 0 00-1.003-4.169A9.339 9.339 0 0018.84 9.42C18.839 4.225 14.614 0 9.419 0 4.225 0 0 4.225 0 9.42c0 1.512.366 2.936 1.003 4.204A9.369 9.369 0 000 17.791c0 5.194 4.225 9.42 9.42 9.42 5.194 0 9.419-4.226 9.419-9.42zM9.419 2.093c4.04 0 7.326 3.288 7.326 7.326 0 4.04-3.287 7.326-7.326 7.326-4.038 0-7.326-3.287-7.326-7.326 0-4.038 3.288-7.326 7.326-7.326zm-7.326 15.7c0-.714.106-1.42.311-2.101l.007-.001c1.726 1.926 4.224 3.148 7.008 3.148h1.047a1.047 1.047 0 010 2.093H8.373a1.047 1.047 0 01-1.047-1.047H5.233a3.144 3.144 0 003.14 3.14v1.047h2.093v-1.047a3.144 3.144 0 003.14-3.14c0-.659-.206-1.27-.555-1.776a9.456 9.456 0 003.376-2.416h.009c.204.68.31 1.386.31 2.1 0 4.038-3.288 7.325-7.327 7.325-4.038 0-7.326-3.287-7.326-7.326zm22.088 2.829l1.337 2.672h-1.97a5.764 5.764 0 00-5.756 5.756v14.653a3.667 3.667 0 01-3.663 3.663 3.667 3.667 0 01-3.663-3.663v-3.14H8.373v3.14a5.764 5.764 0 005.756 5.756 5.764 5.764 0 005.756-5.756V29.05a3.667 3.667 0 013.663-3.663h1.97l-1.335 2.672 1.872.937 2.326-4.655-2.327-4.654-1.872.935z" fill="#282827"/><path d="M10.466 34.88H8.373v2.84h2.093v-2.84zm0-5.679H8.373v2.84h2.093v-2.84z" fill="#282827"/><circle cx="37.377" cy="50.575" r="16.057" fill="#fff"/><path d="M38.006 62.192c6.702 0 12.136-5.433 12.136-12.135s-5.434-12.135-12.136-12.135c-6.702 0-12.135 5.433-12.135 12.135s5.433 12.135 12.135 12.135z" fill="url(#paint0_linear)"/><path d="M38.006 33.371c-9.2 0-16.685 7.485-16.685 16.686 0 9.2 7.485 16.686 16.685 16.686 9.201 0 16.686-7.485 16.686-16.686 0-9.2-7.485-16.686-16.686-16.686zm0 31.855c-8.364 0-15.168-6.805-15.168-15.169s6.804-15.169 15.168-15.169c8.364 0 15.17 6.805 15.17 15.17 0 8.363-6.806 15.168-15.17 15.168z" fill="#282827"/><path d="M37.248 49.299h-9.86v1.517h11.377V39.439h-1.517v9.86zm.758-11.377a.758.758 0 100-1.517.758.758 0 000 1.517zm0 25.788a.758.758 0 100-1.518.758.758 0 000 1.517zM50.9 50.816a.759.759 0 100-1.517.759.759 0 000 1.517zm-25.787 0a.759.759 0 100-1.517.759.759 0 000 1.517z" fill="#282827"/><defs><linearGradient id="paint0_linear" x1="26.36" y1="39.578" x2="50.193" y2="50.64" gradientUnits="userSpaceOnUse"><stop stop-color="#1A3F79"/><stop offset=".057" stop-color="#2AA270"/><stop offset=".172" stop-color="#2AA270"/><stop offset=".229" stop-color="#2AA270"/><stop offset=".286" stop-color="#2AA270"/><stop offset=".349" stop-color="#2AA270"/><stop offset=".401" stop-color="#2AA270"/><stop offset=".458" stop-color="#2AA270"/><stop offset=".542" stop-color="#2AA270"/><stop offset=".599" stop-color="#2AA270"/></linearGradient></defs></svg>