<svg width="135" height="24" fill="none" xmlns="http://www.w3.org/2000/svg"><path d="M13.312 23.448c-2.347 0-4.459-.49-6.336-1.472-1.856-1.003-3.317-2.39-4.384-4.16-1.067-1.77-1.6-3.776-1.6-6.016s.533-4.245 1.6-6.016c1.067-1.77 2.528-3.147 4.384-4.128C8.853.653 10.966.152 13.312.152c2.048 0 3.893.363 5.536 1.088 1.643.725 3.008 1.77 4.096 3.136l-4.032 3.648c-1.45-1.75-3.21-2.624-5.28-2.624-1.216 0-2.304.267-3.264.8A5.662 5.662 0 008.16 8.472c-.512.96-.768 2.07-.768 3.328 0 1.259.256 2.379.768 3.36a5.716 5.716 0 002.208 2.24c.96.533 2.048.8 3.264.8 2.07 0 3.83-.875 5.28-2.624l4.032 3.648c-1.088 1.365-2.453 2.41-4.096 3.136-1.643.725-3.488 1.088-5.536 1.088zM47.598 23l-.032-11.872-5.76 9.664H38.99l-5.76-9.408V23h-5.824V.6h5.216l7.872 12.928L48.174.6h5.216l.064 22.4h-5.856zm30.205-4.896V23H59.819V.6h17.568v4.896H66.09v3.776h9.952v4.736H66.09v4.096h11.712zm23.258-12.48h-6.849V23h-6.24V5.624h-6.88V.6h19.969v5.024zm15.944 2.112c2.752 0 4.875.619 6.368 1.856 1.494 1.216 2.24 3.03 2.24 5.44 0 2.581-.832 4.555-2.496 5.92-1.664 1.365-3.978 2.048-6.944 2.048h-10.592V.6h6.24v7.136h5.184zm-1.248 10.72c1.067 0 1.91-.288 2.528-.864.64-.576.96-1.387.96-2.432 0-1.941-1.162-2.912-3.488-2.912h-3.936v6.208h3.936zM128.077.6h6.24V23h-6.24V.6z" fill="#fff"/></svg>