<svg width="69" height="69" fill="none" xmlns="http://www.w3.org/2000/svg"><path d="M53.799 20.078c-3.4 0-6.65 1.624-8.691 4.346l-.165.22-.827.208a5.362 5.362 0 00-4.07 5.21c0 2.392 1.13 5.525 1.177 5.658l.255.703a3.32 3.32 0 013.006-1.923h1.11v.136a4.438 4.438 0 013.361-4.305l1.076-.268a11.094 11.094 0 008.875 4.437h1.11c1.374 0 2.552.833 3.06 2.021h.024l.807-2.42c.362-1.088.546-2.22.546-3.368 0-5.875-4.78-10.655-10.654-10.655z" fill="url(#paint0_linear)"/><path d="M23.416 21.806c-4.335-2.291-8.998-2.291-13.332 0-3.415 1.807-5.537 5.403-5.537 9.388 0 .843.135 1.674.4 2.47L5.9 36.52h.027a3.327 3.327 0 013.057-2.02h1.11v-1.11a3.328 3.328 0 013.328-3.328h6.656a3.328 3.328 0 013.328 3.329V34.5h1.11c1.372 0 2.55.832 3.058 2.018h.027l.95-2.853a7.786 7.786 0 00.402-2.47c0-3.986-2.122-7.582-5.537-9.389z" fill="url(#paint1_linear)"/><path d="M37.624 28.953a3.324 3.324 0 00-3.124-2.219 3.323 3.323 0 00-3.124 2.22H28.7c.15.72.25 1.458.252 2.218h2.425a3.324 3.324 0 003.124 2.219 3.322 3.322 0 003.124-2.22h2.494a9.6 9.6 0 01-.072-1.108c0-.381.052-.75.129-1.11h-2.552zM34.5 31.172a1.11 1.11 0 010-2.219 1.11 1.11 0 010 2.219z" fill="#282827"/><path d="M4.82 28.855c.17-.778.416-1.528.745-2.237a9.354 9.354 0 01-3.237-7.095c0-5.2 4.23-9.43 9.43-9.43h14.238l-.773.449 3.305 5.766 2.663-1.565v3.116h6.618l-.02-3.118 2.683 1.567 3.305-5.766-.773-.448h14.238c5.2 0 9.43 4.23 9.43 9.43 0 2.688-1.144 5.2-3.102 6.974.315.726.548 1.492.697 2.29 2.899-2.199 4.624-5.597 4.624-9.265 0-6.423-5.226-11.648-11.649-11.648H43.005l.772-.448-3.305-5.767-2.655 1.563L37.809.11h-6.618l-.05 3.078-2.613-1.528-3.305 5.767.784.449h-14.25C5.336 7.875.11 13.1.11 19.523c0 3.729 1.753 7.14 4.71 9.332zm24.52-24.15l.754.439c.645.376 1.44.392 2.103.053l.116-.064a2.218 2.218 0 001.096-1.909v-.896h2.181v.898c0 .782.42 1.513 1.04 1.872l.184.105c.66.337 1.452.317 2.096-.06l.75-.439 1.096 1.913-.794.46a2.212 2.212 0 00-1.091 1.915c0 .781.418 1.509 1.09 1.9l.794.46-1.095 1.913-.754-.439a2.218 2.218 0 00-3.316 1.92v.895h-2.18v-.898c0-.782-.42-1.513-1.105-1.914a2.201 2.201 0 00-2.215-.004l-.75.44-1.096-1.913.793-.46a2.212 2.212 0 001.091-1.916c0-.782-.418-1.51-1.092-1.902l-.792-.46 1.096-1.91zm27.113 34.962l.117-.234-1.985-.992-.116.235a2.467 2.467 0 01-2.219 1.37h-3.328v2.22h3.328a4.673 4.673 0 004.203-2.599z" fill="#282827"/><path d="M57.542 46.866l-.31-.93c1.348-.782 2.351-2.096 2.672-3.67h.112a4.442 4.442 0 004.437-4.438 4.442 4.442 0 00-4.437-4.437h-1.11c-3.08 0-6.02-1.456-7.902-3.893-.338-3.536-5.073-5.641-5.631-5.877l-.86 2.046c.993.418 3.623 1.88 4.191 3.583l-.017.005a5.523 5.523 0 00-4.043 4.136h-.16a4.442 4.442 0 00-4.437 4.437 4.442 4.442 0 004.437 4.438h.112c.321 1.574 1.324 2.888 2.672 3.672l-.31.93C40.344 48.493 35.61 54.48 35.61 61.344v5.327h-2.218v-5.327c0-6.865-4.735-12.851-11.35-14.479l-.309-.93c1.348-.782 2.351-2.096 2.672-3.67h.112a4.442 4.442 0 004.437-4.438 4.442 4.442 0 00-4.437-4.437 4.442 4.442 0 00-4.438-4.438v2.219a2.22 2.22 0 012.219 2.219v7.765a3.332 3.332 0 01-3.328 3.328h-4.44a3.332 3.332 0 01-3.328-3.328V33.39c0-1.224.995-2.22 2.219-2.22v-2.218a4.442 4.442 0 00-4.438 4.438 4.442 4.442 0 00-4.437 4.437 4.442 4.442 0 004.437 4.438h.112c.321 1.574 1.324 2.888 2.672 3.672l-.31.93C4.844 48.493.11 54.48.11 61.344v7.546h68.782v-7.546c0-6.864-4.735-12.851-11.35-14.479zm4.692-9.038a2.221 2.221 0 01-2.218 2.219v-4.438a2.22 2.22 0 012.218 2.22zm-19.968 0a2.22 2.22 0 012.218-2.219v4.438a2.221 2.221 0 01-2.218-2.219zm-15.532 0a2.221 2.221 0 01-2.218 2.219v-4.438a2.22 2.22 0 012.218 2.22zm-19.968 0a2.22 2.22 0 012.218-2.219v4.438a2.221 2.221 0 01-2.218-2.219zm51.627 11.626l-1.205 4.216-3.126-2.502 2.872-2.154c.499.12.986.265 1.459.44zM52.25 66.213l-2.1-2.1 1.857-7.425h.486l1.856 7.424-2.099 2.1zm.516-11.744h-1.032l-.65-.975 1.166-.932 1.166.932-.65.975zm-6.063-19.833a3.323 3.323 0 012.52-3.228l.387-.097a12.29 12.29 0 008.187 4.247v5.598a3.332 3.332 0 01-3.328 3.328H50.03a3.332 3.332 0 01-3.328-3.328v-6.52zm3.328 12.067h4.438c.225 0 .44-.04.658-.066l.256.768-3.133 2.349-3.132-2.349.256-.768c.218.026.432.066.657.066zm-2.465 2.312l2.872 2.154-3.126 2.502-1.205-4.215c.473-.177.96-.322 1.46-.44zm-9.738 12.33c0-4.574 2.474-8.687 6.248-10.923l2.018 7.063 3.252-2.6.6.9-2.252 9.008 1.878 1.879H37.828v-5.327zm-6.656 0v5.327H19.428l1.878-1.878-2.252-9.008.6-.9 3.252 2.6 2.018-7.063c3.774 2.236 6.248 6.348 6.248 10.922zM16.75 52.562l1.166.932-.65.975h-1.032l-.65-.975 1.166-.932zm-.243 4.126h.486l1.856 7.424-2.099 2.1-2.1-2.1 1.857-7.424zm6.386-7.234l-1.205 4.216-3.126-2.502 2.872-2.154c.499.12.986.265 1.459.44zm-8.362-2.75h4.438c.225 0 .44-.04.658-.067l.256.768-3.133 2.349-3.132-2.349.256-.768c.218.026.432.066.657.066zm-2.465 2.311l2.872 2.154-3.126 2.502-1.205-4.215c.473-.177.96-.322 1.46-.44zm-9.738 12.33c0-4.574 2.474-8.687 6.248-10.923l2.018 7.063 3.252-2.6.6.9-2.252 9.008 1.878 1.879H2.328v-5.327zm64.344 5.327H54.928l1.878-1.878-2.252-9.008.6-.9 3.252 2.6 2.018-7.063c3.774 2.236 6.248 6.348 6.248 10.922v5.327z" fill="#282827"/><path d="M18.969 38.676a2.467 2.467 0 01-2.219 1.37h-3.328v2.22h3.328a4.673 4.673 0 004.203-2.599l.117-.234-1.985-.992-.116.235zm-1.109-9.723h-2.22a5.717 5.717 0 003.913 5.432l.171.057.708-2.103-.174-.058a3.505 3.505 0 01-2.399-3.328zm16.64-16.64a3.332 3.332 0 003.328-3.329A3.332 3.332 0 0034.5 5.656a3.332 3.332 0 00-3.328 3.328 3.332 3.332 0 003.328 3.329zm0-4.438a1.11 1.11 0 010 2.219 1.11 1.11 0 010-2.219z" fill="#282827"/><defs><linearGradient id="paint0_linear" x1="40.538" y1="21.2" x2="60.292" y2="34.809" gradientUnits="userSpaceOnUse"><stop stop-color="#1A3F79"/><stop offset=".057" stop-color="#2AA270"/><stop offset=".172" stop-color="#2AA270"/><stop offset=".229" stop-color="#2AA270"/><stop offset=".286" stop-color="#2AA270"/><stop offset=".349" stop-color="#2AA270"/><stop offset=".401" stop-color="#2AA270"/><stop offset=".458" stop-color="#2AA270"/><stop offset=".542" stop-color="#2AA270"/><stop offset=".599" stop-color="#2AA270"/></linearGradient><linearGradient id="paint1_linear" x1="5.038" y1="21.208" x2="24.783" y2="34.821" gradientUnits="userSpaceOnUse"><stop stop-color="#1A3F79"/><stop offset=".057" stop-color="#2AA270"/><stop offset=".172" stop-color="#2AA270"/><stop offset=".229" stop-color="#2AA270"/><stop offset=".286" stop-color="#2AA270"/><stop offset=".349" stop-color="#2AA270"/><stop offset=".401" stop-color="#2AA270"/><stop offset=".458" stop-color="#2AA270"/><stop offset=".542" stop-color="#2AA270"/><stop offset=".599" stop-color="#2AA270"/></linearGradient></defs></svg>