<svg width="70" height="70" fill="none" xmlns="http://www.w3.org/2000/svg"><path d="M42.656 52.256v-8.263l-4.078-1.04a17.373 17.373 0 00-1.234-2.985l2.147-3.616-5.844-5.844-3.616 2.147c-.95-.5-1.95-.914-2.986-1.234l-1.039-4.077h-8.263l-1.04 4.078a17.37 17.37 0 00-2.985 1.234l-3.616-2.147-5.844 5.844 2.147 3.616c-.5.95-.914 1.95-1.234 2.986l-4.077 1.039v8.263l4.078 1.04c.32 1.035.733 2.036 1.234 2.985L4.26 59.898l5.844 5.844 3.616-2.147c.95.5 1.95.914 2.986 1.234l1.039 4.077h8.263l1.04-4.078a17.373 17.373 0 002.985-1.234l3.616 2.147 5.844-5.844-2.147-3.616c.5-.95.914-1.95 1.234-2.986l4.077-1.039zm-20.781 7.9c-6.645 0-12.031-5.386-12.031-12.031 0-6.645 5.386-12.031 12.031-12.031 6.645 0 12.031 5.386 12.031 12.031 0 6.645-5.386 12.031-12.031 12.031z" fill="url(#paint0_linear)"/><path d="M21.875 61.25c-7.237 0-13.125-5.888-13.125-13.125S14.638 35 21.875 35 35 40.888 35 48.125 29.112 61.25 21.875 61.25zm0-24.063c-6.03 0-10.938 4.907-10.938 10.938 0 6.03 4.907 10.938 10.938 10.938 6.03 0 10.938-4.907 10.938-10.938 0-6.03-4.907-10.938-10.938-10.938z" fill="#282827"/><path d="M21.875 54.688a6.57 6.57 0 01-6.563-6.563 6.57 6.57 0 016.563-6.563 6.57 6.57 0 016.563 6.563 6.57 6.57 0 01-6.563 6.563zm0-10.938a4.38 4.38 0 00-4.375 4.375 4.38 4.38 0 004.375 4.375 4.38 4.38 0 004.375-4.375 4.38 4.38 0 00-4.375-4.375zm0-18.849l-6.866-4.12H4.375A3.285 3.285 0 011.094 17.5V4.375a3.285 3.285 0 013.281-3.281h26.25a3.285 3.285 0 013.281 3.281V17.5a3.285 3.285 0 01-3.281 3.281h-8.75v4.12zm-17.5-21.62c-.604 0-1.094.49-1.094 1.094V17.5c0 .604.49 1.094 1.094 1.094h11.24l4.072 2.442v-2.442h10.938c.604 0 1.094-.49 1.094-1.094V4.375c0-.604-.49-1.094-1.094-1.094H4.375zm61.25 6.563h-26.25a3.285 3.285 0 00-3.281 3.281v15.313a3.285 3.285 0 003.281 3.28h2.188v5.052l10.101-5.051h13.961a3.285 3.285 0 003.281-3.282V13.126a3.285 3.285 0 00-3.281-3.281zm1.094 18.593c0 .604-.49 1.094-1.094 1.094H51.148l-7.398 3.7v-3.7h-4.375c-.604 0-1.094-.49-1.094-1.093V13.124c0-.604.49-1.094 1.094-1.094h26.25c.604 0 1.094.49 1.094 1.094v15.313z" fill="#282827"/><path d="M62.344 25.156h-2.188v-8.75H57.97v8.75h-2.19V14.22h-2.187v10.937h-2.188v-6.562H49.22v6.562h-2.19v-4.375h-2.187v4.375h-2.188v2.188H64.53V14.219h-2.187v10.937z" fill="#282827"/><path d="M54.688 59.063v-.852a3.258 3.258 0 01-1.094-2.43V53.78c0-1.777 1.33-3.37 3.105-3.463a3.282 3.282 0 013.457 3.277v2.187a3.26 3.26 0 01-1.093 2.43v.852l2.418 1.21a3.539 3.539 0 011.956 3.164H50.313a3.54 3.54 0 011.956-3.165l2.419-1.21z" fill="url(#paint1_linear)"/><path d="M56.875 44.844c-2.14 0-4.234.573-6.084 1.662l-6.596-.783 2.218 5.228a11.976 11.976 0 00-1.57 5.924c0 6.634 5.398 12.031 12.032 12.031s12.031-5.397 12.031-12.031-5.397-12.031-12.031-12.031zM50.701 64.53h12.347a9.796 9.796 0 01-6.174 2.188A9.795 9.795 0 0150.7 64.53zm4.72-7.132a2.16 2.16 0 01-.733-1.618v-2c0-1.248.928-2.31 2.068-2.37.6-.035 1.185.179 1.625.598.439.418.681.98.681 1.586v2.187a2.16 2.16 0 01-.732 1.618l-.361.326v2.013l3.023 1.512c.487.243.865.629 1.097 1.094H51.662a2.44 2.44 0 011.097-1.094l3.022-1.512v-2.013l-.36-.326zm9.085 5.683a4.596 4.596 0 00-2.536-3.789l-1.655-.827a4.36 4.36 0 00.935-2.685v-2.187a4.39 4.39 0 00-1.363-3.173c-.88-.834-2.017-1.24-3.246-1.197-2.322.122-4.141 2.123-4.141 4.556v2.001c0 .974.335 1.92.934 2.685l-1.655.827a4.596 4.596 0 00-2.536 3.789 9.8 9.8 0 01-.683-11.46l.307-.485-1.187-2.798 3.612.43.33-.208a9.805 9.805 0 015.253-1.53c5.428 0 9.844 4.416 9.844 9.844a9.795 9.795 0 01-2.213 6.207z" fill="#282827"/><path d="M8.86 12.966l-2.19 1.211.419-2.564-1.773-1.817 2.45-.374L8.86 7.089l1.095 2.333 2.449.374-1.772 1.817.418 2.564-2.19-1.211z" fill="url(#paint2_linear)"/><path d="M17.13 12.966l-2.19 1.211.419-2.564-1.773-1.817 2.45-.374 1.095-2.333 1.095 2.333 2.449.374-1.772 1.817.418 2.564-2.19-1.211z" fill="url(#paint3_linear)"/><path d="M25.4 12.966l-2.19 1.211.419-2.564-1.773-1.817 2.45-.374L25.4 7.089l1.095 2.333 2.45.374-1.773 1.817.418 2.564-2.19-1.211z" fill="url(#paint4_linear)"/><defs><linearGradient id="paint0_linear" x1="1.931" y1="30.178" x2="42.744" y2="49.123" gradientUnits="userSpaceOnUse"><stop stop-color="#1A3F79"/><stop offset=".057" stop-color="#2AA270"/><stop offset=".172" stop-color="#2AA270"/><stop offset=".229" stop-color="#2AA270"/><stop offset=".286" stop-color="#2AA270"/><stop offset=".349" stop-color="#2AA270"/><stop offset=".401" stop-color="#2AA270"/><stop offset=".458" stop-color="#2AA270"/><stop offset=".542" stop-color="#2AA270"/><stop offset=".599" stop-color="#2AA270"/></linearGradient><linearGradient id="paint1_linear" x1="50.577" y1="51.208" x2="63.465" y2="57.19" gradientUnits="userSpaceOnUse"><stop stop-color="#1A3F79"/><stop offset=".057" stop-color="#2AA270"/><stop offset=".172" stop-color="#2AA270"/><stop offset=".229" stop-color="#2AA270"/><stop offset=".286" stop-color="#2AA270"/><stop offset=".349" stop-color="#2AA270"/><stop offset=".401" stop-color="#2AA270"/><stop offset=".458" stop-color="#2AA270"/><stop offset=".542" stop-color="#2AA270"/><stop offset=".599" stop-color="#2AA270"/></linearGradient><linearGradient id="paint2_linear" x1="5.459" y1="7.572" x2="12.42" y2="10.803" gradientUnits="userSpaceOnUse"><stop stop-color="#1A3F79"/><stop offset=".057" stop-color="#2AA270"/><stop offset=".172" stop-color="#2AA270"/><stop offset=".229" stop-color="#2AA270"/><stop offset=".286" stop-color="#2AA270"/><stop offset=".349" stop-color="#2AA270"/><stop offset=".401" stop-color="#2AA270"/><stop offset=".458" stop-color="#2AA270"/><stop offset=".542" stop-color="#2AA270"/><stop offset=".599" stop-color="#2AA270"/></linearGradient><linearGradient id="paint3_linear" x1="13.729" y1="7.572" x2="20.69" y2="10.803" gradientUnits="userSpaceOnUse"><stop stop-color="#1A3F79"/><stop offset=".057" stop-color="#2AA270"/><stop offset=".172" stop-color="#2AA270"/><stop offset=".229" stop-color="#2AA270"/><stop offset=".286" stop-color="#2AA270"/><stop offset=".349" stop-color="#2AA270"/><stop offset=".401" stop-color="#2AA270"/><stop offset=".458" stop-color="#2AA270"/><stop offset=".542" stop-color="#2AA270"/><stop offset=".599" stop-color="#2AA270"/></linearGradient><linearGradient id="paint4_linear" x1="21.999" y1="7.572" x2="28.96" y2="10.803" gradientUnits="userSpaceOnUse"><stop stop-color="#1A3F79"/><stop offset=".057" stop-color="#2AA270"/><stop offset=".172" stop-color="#2AA270"/><stop offset=".229" stop-color="#2AA270"/><stop offset=".286" stop-color="#2AA270"/><stop offset=".349" stop-color="#2AA270"/><stop offset=".401" stop-color="#2AA270"/><stop offset=".458" stop-color="#2AA270"/><stop offset=".542" stop-color="#2AA270"/><stop offset=".599" stop-color="#2AA270"/></linearGradient></defs></svg>